<svg width="44" height="71" viewBox="0 0 44 71" fill="none" xmlns="http://www.w3.org/2000/svg">
<path fill-rule="evenodd" clip-rule="evenodd" d="M12.6805 4.66253C9.98187 6.0993 7.28308 8.57949 5.43221 11.3241C5.29391 11.5294 5.18072 11.7211 5.18072 11.7502C5.18072 11.7795 5.11377 11.8984 5.03187 12.0148C4.13433 13.2904 2.97076 16.4628 2.64455 18.5235C2.42236 19.9276 2.39087 20.317 2.39087 21.6541C2.39087 23.1489 2.45563 23.7049 2.80178 25.1793C3.16745 26.7377 4.39996 29.663 5.51471 31.6185C5.60757 31.7815 5.78034 32.0942 5.89852 32.3134C6.01669 32.5326 6.18587 32.8375 6.27455 32.9909C7.55449 35.2057 8.39623 36.7883 9.00103 38.1167C9.71205 39.6778 10.7999 43.6111 11.3094 46.4619C11.3525 46.7031 11.426 47.0914 11.4726 47.325C11.5193 47.5583 11.5575 47.8991 11.5575 48.0822C11.5575 50.2225 13.1262 52.2276 15.1853 52.7192C15.8916 52.8878 28.1076 52.8878 28.8138 52.7192C29.4449 52.5685 30.3177 52.1257 30.7906 51.7166C31.3446 51.2372 32.1999 49.9192 32.0813 49.7273C32.0514 49.679 29.9431 49.6503 26.4187 49.6503C22.7287 49.6503 20.8039 49.623 20.8039 49.5706C20.8039 49.5258 20.5797 49.4909 20.2906 49.4909C20.0082 49.4909 19.7549 49.455 19.7278 49.4112C19.7007 49.3674 19.5909 49.3315 19.4839 49.3315C19.3769 49.3315 19.2894 49.2956 19.2894 49.2518C19.2894 49.2079 19.2177 49.1721 19.13 49.1721C19.0423 49.1721 18.9706 49.1362 18.9706 49.0924C18.9706 49.0485 18.8988 49.0126 18.8112 49.0126C18.7235 49.0126 18.6517 48.9812 18.6517 48.9427C18.6517 48.904 18.5405 48.8265 18.4046 48.7701C18.1508 48.6651 17.3764 47.9623 17.3764 47.8371C17.3764 47.7989 17.3124 47.6978 17.2343 47.6127C17.0968 47.4635 16.8011 46.8346 16.6369 46.3424C16.5615 46.1168 16.479 45.5467 16.3772 44.5489C16.3525 44.3078 16.3001 44.0387 16.2608 43.9511C16.2214 43.8634 16.1684 43.6123 16.1429 43.3931C16.1176 43.1739 16.0763 42.8242 16.0514 42.6159C16.0263 42.4077 15.9735 42.2373 15.9338 42.2373C15.8944 42.2373 15.8619 42.0781 15.8619 41.8834C15.8619 41.6887 15.826 41.5071 15.7822 41.48C15.7383 41.4529 15.7025 41.2893 15.7025 41.1166C15.7025 40.9438 15.6666 40.8025 15.6228 40.8025C15.5789 40.8025 15.543 40.659 15.543 40.4837C15.543 40.3083 15.5072 40.1648 15.4633 40.1648C15.4195 40.1648 15.3836 40.0213 15.3836 39.846C15.3836 39.6706 15.3478 39.5271 15.3039 39.5271C15.2601 39.5271 15.2242 39.4016 15.2242 39.2482C15.2242 39.0947 15.1883 38.9692 15.1445 38.9692C15.1007 38.9692 15.0648 38.8638 15.0648 38.7348C15.0648 38.6059 15.0289 38.4782 14.9851 38.4511C14.9412 38.424 14.9054 38.2783 14.9054 38.1274C14.9054 37.9766 14.8695 37.8532 14.8257 37.8532C14.7818 37.8532 14.7459 37.7456 14.7459 37.6141C14.7459 37.4826 14.7101 37.375 14.6662 37.375C14.6224 37.375 14.5865 37.2674 14.5865 37.1358C14.5865 37.0043 14.5507 36.8967 14.5068 36.8967C14.463 36.8967 14.4271 36.7913 14.4271 36.6624C14.4271 36.5334 14.3912 36.4057 14.3474 36.3786C14.3036 36.3515 14.2677 36.2592 14.2677 36.1735C14.2677 36.0879 14.2318 35.9466 14.188 35.8595C14.1441 35.7724 14.0724 35.6297 14.0286 35.5426C13.9847 35.4556 13.9488 35.3121 13.9488 35.2238C13.9488 35.1355 13.913 35.0634 13.8691 35.0634C13.8253 35.0634 13.7894 34.9916 13.7894 34.904C13.7894 34.8163 13.7536 34.7445 13.7097 34.7445C13.6659 34.7445 13.6298 34.6818 13.6296 34.605C13.6292 34.5283 13.5754 34.3627 13.51 34.2372C13.4445 34.1116 13.3909 33.9592 13.3909 33.8984C13.3909 33.8376 13.355 33.788 13.3112 33.788C13.2673 33.788 13.2315 33.7163 13.2315 33.6286C13.2315 33.5409 13.1956 33.4692 13.1517 33.4692C13.1079 33.4692 13.072 33.3974 13.072 33.3098C13.072 33.2221 13.0451 33.1501 13.0122 33.1501C12.9794 33.1499 12.8628 32.9527 12.7532 32.7119C12.6436 32.4712 12.527 32.2739 12.4941 32.2737C12.4613 32.2737 12.4343 32.2265 12.4343 32.1689C12.4343 32.1115 12.3626 31.9874 12.2749 31.8933C12.1872 31.7992 12.1155 31.6669 12.1155 31.5994C12.1155 31.5318 12.0796 31.4764 12.0358 31.4764C11.992 31.4764 11.9561 31.4047 11.9561 31.317C11.9561 31.2293 11.9202 31.1576 11.8764 31.1576C11.8325 31.1576 11.7967 31.0938 11.7967 31.0157C11.7967 30.9378 11.7249 30.8222 11.6372 30.759C11.5496 30.6959 11.4778 30.5803 11.4778 30.5024C11.4778 30.4242 11.442 30.3605 11.3981 30.3605C11.3543 30.3605 11.3184 30.2887 11.3184 30.2011C11.3184 30.1134 11.2825 30.0416 11.2387 30.0416C11.1949 30.0416 11.159 29.9699 11.159 29.8822C11.159 29.7945 11.1231 29.7228 11.0793 29.7228C11.0354 29.7228 10.9996 29.669 10.9996 29.6032C10.9996 29.5375 10.9637 29.4837 10.9199 29.4837C10.876 29.4837 10.8401 29.4299 10.8401 29.3641C10.8401 29.2983 10.8043 29.2445 10.7604 29.2445C10.7166 29.2445 10.6807 29.1728 10.6807 29.0851C10.6807 28.9974 10.6449 28.9257 10.601 28.9257C10.5572 28.9257 10.5213 28.8719 10.5213 28.8061C10.5213 28.7404 10.4854 28.6866 10.4416 28.6866C10.3978 28.6866 10.3619 28.634 10.3619 28.5698C10.3619 28.4078 10.1076 27.8895 10.0283 27.8895C9.99263 27.8895 9.96334 27.8177 9.96334 27.73C9.96334 27.6424 9.92746 27.5706 9.88362 27.5706C9.83978 27.5706 9.80391 27.4989 9.80391 27.4112C9.80391 27.3235 9.76804 27.2518 9.7242 27.2518C9.68036 27.2518 9.64449 27.18 9.64449 27.0924C9.64449 27.0047 9.61759 26.9327 9.58471 26.9323C9.51317 26.9315 9.32565 26.5456 9.32565 26.3989C9.32565 26.3419 9.28978 26.2953 9.24594 26.2953C9.2021 26.2953 9.16623 26.2235 9.16623 26.1358C9.16623 26.0482 9.13036 25.9764 9.08652 25.9764C9.04268 25.9764 9.00681 25.9236 9.00681 25.8592C9.00681 25.7949 8.93507 25.6143 8.84739 25.4583C8.75971 25.3023 8.68797 25.1217 8.68797 25.0574C8.68797 24.993 8.6521 24.9402 8.60826 24.9402C8.56442 24.9402 8.52855 24.8527 8.52855 24.7457C8.52855 24.6387 8.49268 24.5289 8.44884 24.5018C8.405 24.4747 8.36913 24.3828 8.36913 24.2977C8.36913 24.2126 8.33326 24.1431 8.28942 24.1431C8.24558 24.1431 8.20971 24.0355 8.20971 23.904C8.20971 23.7724 8.17384 23.6648 8.13 23.6648C8.08616 23.6648 8.05029 23.5773 8.05029 23.4703C8.05029 23.3633 8.01442 23.2535 7.97058 23.2264C7.92674 23.1993 7.89087 23.0917 7.89087 22.9873C7.89087 22.8829 7.855 22.7753 7.81116 22.7482C7.76732 22.7211 7.73145 22.6135 7.73145 22.509C7.73145 22.4046 7.69558 22.297 7.65174 22.2699C7.6079 22.2428 7.57203 22.0971 7.57203 21.9463C7.57203 21.7954 7.53616 21.6721 7.49232 21.6721C7.44848 21.6721 7.41261 21.4927 7.41261 21.2735C7.41261 21.0543 7.37674 20.875 7.3329 20.875C7.28647 20.875 7.25319 20.6093 7.25319 20.2373C7.25319 19.8652 7.21991 19.5996 7.17348 19.5996C7.12446 19.5996 7.09377 19.2027 7.09377 18.5682C7.09377 17.9664 7.12705 17.516 7.17348 17.4873C7.21732 17.4602 7.25319 17.1172 7.25319 16.7253C7.25319 16.3034 7.28567 16.0127 7.3329 16.0127C7.37674 16.0127 7.41261 15.8176 7.41261 15.579C7.41261 15.3405 7.44848 15.1231 7.49232 15.096C7.53616 15.0689 7.57203 14.9075 7.57203 14.7373C7.57203 14.5671 7.6079 14.4057 7.65174 14.3786C7.69558 14.3515 7.73145 14.2058 7.73145 14.055C7.73145 13.9041 7.76732 13.7808 7.81116 13.7808C7.855 13.7808 7.89087 13.6552 7.89087 13.5018C7.89087 13.3483 7.92674 13.2228 7.97058 13.2228C8.01442 13.2228 8.05029 13.1152 8.05029 12.9837C8.05029 12.8521 8.08616 12.7445 8.13 12.7445C8.17384 12.7445 8.20971 12.6369 8.20971 12.5054C8.20971 12.3739 8.24558 12.2663 8.28942 12.2663C8.33326 12.2663 8.36913 12.1955 8.36913 12.1093C8.36913 12.023 8.44087 11.8245 8.52855 11.6685C8.61623 11.5124 8.68797 11.3139 8.68797 11.2277C8.68797 11.1414 8.72384 11.0706 8.76768 11.0706C8.81152 11.0706 8.84739 10.9989 8.84739 10.9112C8.84739 10.8235 8.88326 10.7518 8.9271 10.7518C8.97094 10.7518 9.00681 10.68 9.00681 10.5924C9.00681 10.5047 9.04268 10.4329 9.08652 10.4329C9.13036 10.4329 9.16623 10.3612 9.16623 10.2735C9.16623 10.1858 9.2021 10.1141 9.24594 10.1141C9.28978 10.1141 9.32565 10.0424 9.32565 9.95469C9.32565 9.867 9.36152 9.79526 9.40536 9.79526C9.4492 9.79526 9.48507 9.72353 9.48507 9.63584C9.48507 9.54816 9.51676 9.47642 9.55542 9.47642C9.59427 9.47642 9.64589 9.41365 9.6702 9.33693C9.71464 9.19684 9.96712 8.75365 10.0448 8.67932C10.1411 8.58726 10.3619 8.20026 10.3619 8.12334C10.3619 8.07771 10.4695 7.92766 10.601 7.78996C10.7325 7.65226 10.8401 7.50878 10.8401 7.47112C10.8401 7.43345 10.9478 7.28998 11.0793 7.15228C11.2108 7.01458 11.3184 6.86871 11.3184 6.82786C11.3184 6.7872 11.4541 6.622 11.6199 6.46119C11.7857 6.30017 12.0085 6.04291 12.1149 5.88947C12.3126 5.6047 12.4074 5.50905 13.1798 4.81537C13.4764 4.54894 13.5899 4.39909 13.526 4.35824C13.3959 4.27554 13.4311 4.26278 12.6805 4.66253Z" fill="#F5F5F5"/>
<path fill-rule="evenodd" clip-rule="evenodd" d="M11.6384 58.1709C11.6384 58.2098 11.5695 58.2594 11.4852 58.2815C10.9049 58.4332 10.9163 60.0796 11.4989 60.2342C11.5757 60.2548 11.6384 60.303 11.6384 60.3418C11.6384 60.3821 16.0578 60.4122 22.0008 60.4122C27.9438 60.4122 32.3631 60.3821 32.3631 60.3418C32.3631 60.303 32.4259 60.2548 32.5026 60.2342C33.0853 60.0796 33.0966 58.4332 32.5163 58.2815C32.432 58.2594 32.3631 58.2098 32.3631 58.1709C32.3631 58.1307 27.9438 58.1006 22.0008 58.1006C16.0578 58.1006 11.6384 58.1307 11.6384 58.1709ZM13.2326 62.8035C13.2326 62.8473 13.1868 62.8832 13.1308 62.8832C13.0011 62.8832 12.7544 63.1682 12.7544 63.3178C12.7544 63.3804 12.7185 63.4539 12.6747 63.481C12.5354 63.5671 12.5872 64.2086 12.7592 64.531C13.0957 65.1613 12.3612 65.1151 22.0197 65.1151H30.6342L30.8946 64.9164C31.3231 64.5896 31.605 63.653 31.3268 63.481C31.283 63.4539 31.2471 63.3804 31.2471 63.3178C31.2471 63.1682 31.0004 62.8832 30.8707 62.8832C30.8147 62.8832 30.7689 62.8473 30.7689 62.8035C30.7689 62.7509 27.7931 62.7238 22.0008 62.7238C16.2084 62.7238 13.2326 62.7509 13.2326 62.8035ZM14.7471 68.2941C14.7471 68.333 14.6782 68.3826 14.5939 68.4047C14.2904 68.484 13.9096 69.7383 14.1892 69.7383C14.233 69.7383 14.2689 69.7933 14.2689 69.8606C14.2689 70.04 14.5088 70.3759 14.6367 70.3759C14.6975 70.3759 14.7471 70.4118 14.7471 70.4557C14.7471 70.5083 17.2182 70.5354 22.0008 70.5354C26.7834 70.5354 29.2544 70.5083 29.2544 70.4557C29.2544 70.4118 29.304 70.3759 29.3648 70.3759C29.4927 70.3759 29.7326 70.04 29.7326 69.8606C29.7326 69.7933 29.7685 69.7383 29.8124 69.7383C30.0919 69.7383 29.7111 68.484 29.4076 68.4047C29.3233 68.3826 29.2544 68.333 29.2544 68.2941C29.2544 68.2539 26.1449 68.2238 22.0008 68.2238C17.8566 68.2238 14.7471 68.2539 14.7471 68.2941Z" fill="#115F63"/>
<path fill-rule="evenodd" clip-rule="evenodd" d="M19.5702 0.0706431C19.5423 0.115679 19.2727 0.152545 18.971 0.152545C18.6693 0.152545 18.4003 0.188415 18.3732 0.232256C18.3461 0.276096 18.1466 0.311966 17.93 0.311966C17.7134 0.311966 17.5362 0.347835 17.5362 0.391676C17.5362 0.435516 17.3748 0.471386 17.1775 0.471386C16.9803 0.471386 16.8188 0.507256 16.8188 0.551096C16.8188 0.594937 16.6754 0.630806 16.5 0.630806C16.3246 0.630806 16.1812 0.666676 16.1812 0.710516C16.1812 0.754357 16.0757 0.790227 15.9468 0.790227C15.8179 0.790227 15.6901 0.826096 15.663 0.869937C15.6359 0.913777 15.5104 0.949647 15.3841 0.949647C15.2577 0.949647 15.1322 0.985517 15.1051 1.02936C15.078 1.0732 14.9704 1.10907 14.8659 1.10907C14.7615 1.10907 14.6539 1.14494 14.6268 1.18878C14.5997 1.23262 14.5078 1.26849 14.4228 1.26849C14.3377 1.26849 14.2681 1.30436 14.2681 1.3482C14.2681 1.39204 14.1784 1.42791 14.0688 1.42791C13.9592 1.42791 13.8696 1.46378 13.8696 1.50762C13.8696 1.55146 13.8 1.58733 13.7149 1.58733C13.6298 1.58733 13.538 1.6232 13.5109 1.66704C13.4838 1.71088 13.374 1.74675 13.267 1.74675C13.1599 1.74675 13.0725 1.78262 13.0725 1.82646C13.0725 1.8703 13.0007 1.90617 12.913 1.90617C12.8254 1.90617 12.7536 1.94204 12.7536 1.98588C12.7536 2.02972 12.6994 2.06559 12.6331 2.06559C12.4681 2.06559 11.3541 2.60124 10.9458 2.87684C10.7625 3.00059 10.5741 3.10182 10.5273 3.10182C10.4805 3.10182 10.442 3.13331 10.442 3.17177C10.442 3.21043 10.3344 3.28655 10.2029 3.34095C10.0714 3.39535 9.96377 3.47148 9.96377 3.51014C9.96377 3.5486 9.91893 3.58008 9.86413 3.58028C9.80933 3.58028 9.63895 3.68789 9.48551 3.81921C9.33207 3.95053 9.16966 4.05814 9.12442 4.05814C9.07938 4.05834 8.99071 4.13008 8.92754 4.21776C8.86437 4.30544 8.76672 4.37718 8.71072 4.37718C8.65453 4.37718 8.6087 4.41305 8.6087 4.45689C8.6087 4.50073 8.56924 4.5366 8.52102 4.5366C8.47299 4.5366 8.33848 4.63664 8.2221 4.7588C8.10592 4.88115 7.88533 5.06847 7.73188 5.17508C7.38654 5.41521 4.94203 7.8653 4.94203 7.97131C4.94203 8.01376 4.83203 8.16401 4.69732 8.3051C4.38964 8.62813 3.74638 9.52885 3.74638 9.63686C3.74638 9.6813 3.71051 9.71776 3.66667 9.71776C3.62283 9.71776 3.58696 9.77157 3.58696 9.83733C3.58696 9.90309 3.55109 9.95689 3.50725 9.95689C3.46341 9.95689 3.42754 10.0039 3.42754 10.0615C3.42754 10.1189 3.3558 10.2431 3.26812 10.3371C3.18044 10.4312 3.1087 10.5635 3.1087 10.631C3.1087 10.6986 3.07283 10.754 3.02899 10.754C2.98515 10.754 2.94928 10.8178 2.94928 10.8959C2.94928 10.9738 2.87754 11.0894 2.78986 11.1525C2.70217 11.2157 2.63044 11.3313 2.63044 11.4092C2.63044 11.4873 2.59457 11.5511 2.55073 11.5511C2.50688 11.5511 2.47101 11.6228 2.47101 11.7105C2.47101 11.7982 2.43515 11.8699 2.3913 11.8699C2.34746 11.8699 2.31159 11.9387 2.31159 12.0228C2.31159 12.1067 2.28469 12.1874 2.25181 12.2021C2.15237 12.2462 1.83333 12.9106 1.83333 13.0732C1.83333 13.1567 1.79746 13.225 1.75362 13.225C1.70978 13.225 1.67391 13.2967 1.67391 13.3844C1.67391 13.4721 1.63804 13.5439 1.5942 13.5439C1.55036 13.5439 1.51449 13.6313 1.51449 13.7383C1.51449 13.8454 1.47862 13.9552 1.43478 13.9823C1.39094 14.0094 1.35507 14.1012 1.35507 14.1863C1.35507 14.2714 1.3192 14.341 1.27536 14.341C1.23152 14.341 1.19565 14.4486 1.19565 14.5801C1.19565 14.7116 1.15978 14.8192 1.11594 14.8192C1.0721 14.8192 1.03623 14.9268 1.03623 15.0583C1.03623 15.1899 1.00435 15.2975 0.96529 15.2975C0.926232 15.2975 0.875815 15.414 0.853097 15.5565C0.83038 15.699 0.7702 15.9591 0.719185 16.1344C0.559964 16.6822 0.391576 17.6248 0.345544 18.2268C0.321232 18.5447 0.26942 18.8047 0.230362 18.8047C0.191304 18.8047 0.159421 19.1634 0.159421 19.6018C0.159421 20.0801 0.127537 20.3989 0.0797105 20.3989C0.0296923 20.3989 0 20.8905 0 21.7141C0 22.5377 0.0296923 23.0294 0.0797105 23.0294C0.126142 23.0294 0.159421 23.295 0.159421 23.667C0.159421 24.0391 0.1927 24.3047 0.239131 24.3047C0.282972 24.3047 0.31884 24.4572 0.318641 24.6435C0.318442 25.0785 0.641069 26.5593 0.804874 26.8744C0.844529 26.9505 0.876812 27.1029 0.876812 27.2131C0.876812 27.3233 0.912682 27.4134 0.956522 27.4134C1.00036 27.4134 1.03623 27.5009 1.03623 27.6079C1.03623 27.7149 1.0721 27.8247 1.11594 27.8518C1.15978 27.8789 1.19565 27.9887 1.19565 28.0957C1.19565 28.2027 1.23152 28.2902 1.27536 28.2902C1.3192 28.2902 1.35507 28.362 1.35507 28.4496C1.35507 28.5373 1.39094 28.6091 1.43478 28.6091C1.47862 28.6091 1.51449 28.7167 1.51449 28.8482C1.51449 28.9797 1.55036 29.0873 1.5942 29.0873C1.63804 29.0873 1.67391 29.1591 1.67391 29.2467C1.67391 29.3344 1.70978 29.4062 1.75362 29.4062C1.79746 29.4062 1.83333 29.4779 1.83333 29.5656C1.83333 29.6533 1.8692 29.725 1.91304 29.725C1.95688 29.725 1.99275 29.8125 1.99275 29.9195C1.99275 30.0265 2.02862 30.1363 2.07246 30.1634C2.1163 30.1905 2.15217 30.2824 2.15217 30.3675C2.15217 30.4526 2.18804 30.5221 2.23189 30.5221C2.27573 30.5221 2.31159 30.5939 2.31159 30.6815C2.31159 30.7692 2.3385 30.8412 2.37138 30.8412C2.40426 30.8414 2.52083 31.0386 2.63044 31.2794C2.74004 31.5201 2.85661 31.7174 2.88949 31.7176C2.92237 31.7176 2.94928 31.7895 2.94928 31.8772C2.94928 31.9649 2.98515 32.0366 3.02899 32.0366C3.07283 32.0366 3.1087 32.0836 3.1087 32.1412C3.1087 32.1986 3.18044 32.3228 3.26812 32.4168C3.3558 32.5109 3.42754 32.6432 3.42754 32.7108C3.42754 32.7783 3.46341 32.8337 3.50725 32.8337C3.55109 32.8337 3.58696 32.9054 3.58696 32.9931C3.58696 33.0808 3.62283 33.1525 3.66667 33.1525C3.71051 33.1525 3.74638 33.2052 3.74638 33.2693C3.74638 33.4313 4.00065 33.9496 4.07996 33.9496C4.11563 33.9496 4.14493 34.0214 4.14493 34.1091C4.14493 34.1968 4.17402 34.2685 4.20969 34.2685C4.24536 34.2685 4.32388 34.394 4.38406 34.5475C4.44424 34.7009 4.52275 34.8265 4.55842 34.8265C4.59409 34.8265 4.62319 34.8735 4.62319 34.9311C4.62319 34.9885 4.69493 35.1126 4.78261 35.2067C4.87029 35.3007 4.94203 35.4331 4.94203 35.5006C4.94203 35.5682 4.9779 35.6236 5.02174 35.6236C5.06558 35.6236 5.10145 35.6953 5.10145 35.783C5.10145 35.8707 5.13732 35.9424 5.18116 35.9424C5.225 35.9424 5.26087 35.9894 5.26087 36.047C5.26087 36.1044 5.33261 36.2286 5.42029 36.3226C5.50797 36.4167 5.57971 36.549 5.57971 36.6166C5.57971 36.6841 5.61558 36.7395 5.65942 36.7395C5.70326 36.7395 5.73913 36.8112 5.73913 36.8989C5.73913 36.9866 5.775 37.0583 5.81884 37.0583C5.86268 37.0583 5.89855 37.1301 5.89855 37.2178C5.89855 37.3054 5.93442 37.3772 5.97826 37.3772C6.0221 37.3772 6.05797 37.4489 6.05797 37.5366C6.05797 37.6243 6.08487 37.6962 6.11775 37.6962C6.15064 37.6964 6.26721 37.8937 6.37681 38.1344C6.48641 38.3752 6.60299 38.5724 6.63587 38.5726C6.66875 38.5726 6.69565 38.6446 6.69565 38.7323C6.69565 38.8199 6.73152 38.8917 6.77536 38.8917C6.8192 38.8917 6.85507 38.9634 6.85507 39.0511C6.85507 39.1388 6.89094 39.2105 6.93478 39.2105C6.97862 39.2105 7.01469 39.3092 7.01489 39.4297C7.01529 39.5503 7.0691 39.7518 7.13446 39.8773C7.20002 40.0028 7.25362 40.1736 7.25362 40.2569C7.25362 40.3402 7.28591 40.4705 7.32556 40.5467C7.36522 40.6228 7.44034 40.8466 7.49275 41.0439C7.54516 41.2411 7.62029 41.4649 7.65995 41.541C7.6996 41.6172 7.73188 41.7517 7.73188 41.84C7.73188 41.9282 7.76776 42.0004 7.8116 42.0004C7.85544 42.0004 7.8913 42.1439 7.8913 42.3192C7.8913 42.4946 7.92319 42.6381 7.96225 42.6381C8.0013 42.6381 8.05511 42.7636 8.08181 42.917C8.10852 43.0705 8.15236 43.3216 8.17906 43.475C8.20576 43.6285 8.25957 43.754 8.29862 43.754C8.33768 43.754 8.36957 43.8975 8.36957 44.0728C8.36957 44.2482 8.40544 44.3917 8.44928 44.3917C8.49312 44.3917 8.52899 44.5531 8.52899 44.7504C8.52899 44.9477 8.56486 45.1091 8.6087 45.1091C8.65254 45.1091 8.68841 45.2525 8.68841 45.4279C8.68841 45.6033 8.72428 45.7468 8.76812 45.7468C8.81196 45.7468 8.84783 45.9261 8.84783 46.1453C8.84783 46.3645 8.8837 46.5439 8.92754 46.5439C8.97138 46.5439 9.00725 46.7389 9.00725 46.9775C9.00725 47.216 9.04312 47.4334 9.08696 47.4605C9.1308 47.4876 9.16667 47.6871 9.16667 47.9037C9.16667 48.1203 9.20254 48.2975 9.24638 48.2975C9.29321 48.2975 9.32609 48.5765 9.32609 48.975C9.32609 49.3736 9.35897 49.6525 9.4058 49.6525C9.44964 49.6525 9.48551 49.796 9.48551 49.9714C9.48551 50.1468 9.52138 50.2902 9.56522 50.2902C9.60906 50.2902 9.64493 50.3978 9.64493 50.5294C9.64493 50.6609 9.6808 50.7685 9.72464 50.7685C9.76848 50.7685 9.80435 50.8402 9.80435 50.9279C9.80435 51.0156 9.84022 51.0873 9.88406 51.0873C9.9279 51.0873 9.96377 51.1591 9.96377 51.2467C9.96377 51.3344 9.99964 51.4062 10.0435 51.4062C10.0873 51.4062 10.1232 51.4779 10.1232 51.5656C10.1232 51.6533 10.1591 51.725 10.2029 51.725C10.2467 51.725 10.2826 51.7788 10.2826 51.8446C10.2826 51.9103 10.3141 51.9641 10.3526 51.9641C10.3912 51.9641 10.4709 52.0803 10.5297 52.2226C10.6367 52.4811 12.0492 53.9569 12.1895 53.9569C12.2305 53.9569 12.3128 54.0017 12.3724 54.0565C12.432 54.1113 12.5651 54.2044 12.6679 54.2634C13.2775 54.6121 13.4114 54.6743 13.5531 54.6743C13.6394 54.6743 13.7101 54.7024 13.7101 54.7367C13.7101 54.7709 13.8805 54.8459 14.0888 54.9031C14.297 54.9602 14.5714 55.04 14.6986 55.0798C15.0038 55.1759 28.9962 55.1759 29.3015 55.0798C29.4286 55.04 29.703 54.9602 29.9112 54.9031C30.1195 54.8459 30.2899 54.7709 30.2899 54.7367C30.2899 54.7024 30.3582 54.6743 30.4417 54.6743C30.6224 54.6743 31.2464 54.3539 31.2464 54.261C31.2464 54.2253 31.3181 54.196 31.4058 54.196C31.4935 54.196 31.5652 54.1625 31.5652 54.1217C31.5652 54.0808 31.6407 54.0234 31.7332 53.994C31.9805 53.9156 33.3457 52.5233 33.4703 52.2226C33.5291 52.0803 33.6088 51.9641 33.6474 51.9641C33.6859 51.9641 33.7174 51.9103 33.7174 51.8446C33.7174 51.7788 33.7533 51.725 33.7971 51.725C33.8409 51.725 33.8768 51.6533 33.8768 51.5656C33.8768 51.4779 33.9127 51.4062 33.9565 51.4062C34.0004 51.4062 34.0362 51.3344 34.0362 51.2467C34.0362 51.1591 34.0721 51.0873 34.1159 51.0873C34.1598 51.0873 34.1957 51.0156 34.1957 50.9279C34.1957 50.8402 34.2315 50.7685 34.2754 50.7685C34.3192 50.7685 34.3551 50.6609 34.3551 50.5294C34.3551 50.3978 34.3909 50.2902 34.4348 50.2902C34.4786 50.2902 34.5145 50.1468 34.5145 49.9714C34.5145 49.796 34.5504 49.6525 34.5942 49.6525C34.641 49.6525 34.6739 49.3736 34.6739 48.975C34.6739 48.5765 34.7068 48.2975 34.7536 48.2975C34.7975 48.2975 34.8333 48.1203 34.8333 47.9037C34.8333 47.6871 34.8692 47.4876 34.913 47.4605C34.9569 47.4334 34.9928 47.216 34.9928 46.9775C34.9928 46.7389 35.0286 46.5439 35.0725 46.5439C35.1163 46.5439 35.1522 46.3645 35.1522 46.1453C35.1522 45.9261 35.188 45.7468 35.2319 45.7468C35.2757 45.7468 35.3116 45.5875 35.3116 45.3928C35.3116 45.1981 35.3475 45.0166 35.3913 44.9895C35.4352 44.9624 35.471 44.8167 35.471 44.6659C35.471 44.515 35.5069 44.3917 35.5507 44.3917C35.5946 44.3917 35.6304 44.2482 35.6304 44.0728C35.6304 43.8975 35.6663 43.754 35.7101 43.754C35.754 43.754 35.7899 43.6105 35.7899 43.4352C35.7899 43.2598 35.8217 43.1163 35.8608 43.1163C35.928 43.1163 35.9513 43.0268 36.0752 42.2993C36.1033 42.1349 36.1581 42.0004 36.1972 42.0004C36.2362 42.0004 36.2681 41.895 36.2681 41.766C36.2681 41.6371 36.304 41.5094 36.3478 41.4823C36.3917 41.4552 36.4275 41.3274 36.4275 41.1985C36.4275 41.0696 36.4634 40.9641 36.5072 40.9641C36.5511 40.9641 36.587 40.8741 36.587 40.7639C36.587 40.6537 36.618 40.5012 36.6559 40.4251C36.7842 40.1676 36.9255 39.73 36.9644 39.4696C36.9855 39.3271 37.0349 39.2105 37.074 39.2105C37.113 39.2105 37.1449 39.1388 37.1449 39.0511C37.1449 38.9634 37.1808 38.8917 37.2246 38.8917C37.2685 38.8917 37.3043 38.8199 37.3043 38.7323C37.3043 38.6446 37.3334 38.5728 37.3691 38.5728C37.4048 38.5728 37.4833 38.4473 37.5435 38.2939C37.6037 38.1404 37.6822 38.0149 37.7178 38.0149C37.7535 38.0149 37.7826 37.9431 37.7826 37.8554C37.7826 37.7678 37.8185 37.696 37.8623 37.696C37.9062 37.696 37.942 37.6243 37.942 37.5366C37.942 37.4489 37.9779 37.3772 38.0217 37.3772C38.0656 37.3772 38.1014 37.3054 38.1014 37.2178C38.1014 37.1301 38.1373 37.0583 38.1812 37.0583C38.225 37.0583 38.2609 36.9866 38.2609 36.8989C38.2609 36.8112 38.2967 36.7395 38.3406 36.7395C38.3844 36.7395 38.4203 36.6841 38.4203 36.6166C38.4203 36.549 38.492 36.4167 38.5797 36.3226C38.6674 36.2286 38.7391 36.1044 38.7391 36.047C38.7391 35.9894 38.775 35.9424 38.8188 35.9424C38.8627 35.9424 38.8985 35.8707 38.8985 35.783C38.8985 35.6953 38.9344 35.6236 38.9783 35.6236C39.0221 35.6236 39.058 35.5682 39.058 35.5006C39.058 35.4331 39.1249 35.3059 39.2066 35.2182C39.2885 35.1304 39.441 34.8898 39.5454 34.6834C39.65 34.4771 39.7624 34.2964 39.7953 34.2818C39.8282 34.2671 39.8551 34.1864 39.8551 34.1025C39.8551 34.0184 39.8844 33.9496 39.92 33.9496C39.9993 33.9496 40.2536 33.4313 40.2536 33.2693C40.2536 33.2052 40.2895 33.1525 40.3333 33.1525C40.3772 33.1525 40.413 33.0808 40.413 32.9931C40.413 32.9054 40.4489 32.8337 40.4928 32.8337C40.5366 32.8337 40.5725 32.7783 40.5725 32.7108C40.5725 32.6432 40.6442 32.5109 40.7319 32.4168C40.8196 32.3228 40.8913 32.1986 40.8913 32.1412C40.8913 32.0836 40.9272 32.0366 40.971 32.0366C41.0149 32.0366 41.0507 31.9679 41.0507 31.8838C41.0507 31.7999 41.078 31.7192 41.1113 31.7044C41.1446 31.6899 41.3275 31.3551 41.518 30.9605C41.7083 30.566 41.8962 30.1808 41.9357 30.1046C41.975 30.0285 42.0072 29.9119 42.0072 29.8456C42.0072 29.7792 42.0431 29.725 42.087 29.725C42.1308 29.725 42.1667 29.6533 42.1667 29.5656C42.1667 29.4779 42.2025 29.4062 42.2464 29.4062C42.2902 29.4062 42.3261 29.3344 42.3261 29.2467C42.3261 29.1591 42.362 29.0873 42.4058 29.0873C42.4496 29.0873 42.4855 28.9797 42.4855 28.8482C42.4855 28.7167 42.5214 28.6091 42.5652 28.6091C42.6091 28.6091 42.6449 28.5373 42.6449 28.4496C42.6449 28.362 42.6808 28.2902 42.7246 28.2902C42.7685 28.2902 42.8043 28.2027 42.8043 28.0957C42.8043 27.9887 42.8402 27.8789 42.8841 27.8518C42.9279 27.8247 42.9638 27.7171 42.9638 27.6127C42.9638 27.5083 42.9996 27.4007 43.0435 27.3736C43.0873 27.3465 43.1232 27.2542 43.1232 27.1685C43.1232 27.0828 43.1555 26.9505 43.1951 26.8744C43.3589 26.5593 43.6816 25.0785 43.6814 24.6435C43.6812 24.4572 43.717 24.3047 43.7609 24.3047C43.8077 24.3047 43.8406 24.0273 43.8406 23.632C43.8406 23.2619 43.8764 22.9369 43.9203 22.9098C43.9679 22.8803 44 22.3644 44 21.6296C44 20.8622 43.9699 20.3989 43.9203 20.3989C43.8727 20.3989 43.8406 20.0934 43.8406 19.6417C43.8406 19.2252 43.8085 18.8844 43.7692 18.8844C43.7302 18.8844 43.679 18.6064 43.6557 18.2667C43.6124 17.6336 43.449 16.7014 43.282 16.1344C43.2304 15.9591 43.1696 15.699 43.1469 15.5565C43.1242 15.414 43.0738 15.2975 43.0347 15.2975C42.9957 15.2975 42.9638 15.1899 42.9638 15.0583C42.9638 14.9268 42.9279 14.8192 42.8841 14.8192C42.8402 14.8192 42.8043 14.7116 42.8043 14.5801C42.8043 14.4486 42.7685 14.341 42.7246 14.341C42.6808 14.341 42.6449 14.2535 42.6449 14.1465C42.6449 14.0394 42.6091 13.9296 42.5652 13.9025C42.5214 13.8754 42.4855 13.7836 42.4855 13.6985C42.4855 13.6134 42.4496 13.5439 42.4058 13.5439C42.362 13.5439 42.3261 13.4896 42.3261 13.4233C42.3261 13.3569 42.2942 13.2404 42.2551 13.1642C42.2161 13.0881 42.0995 12.8464 41.9961 12.6272C41.8927 12.408 41.7811 12.2167 41.7482 12.2021C41.7153 12.1874 41.6884 12.1067 41.6884 12.0228C41.6884 11.9387 41.6525 11.8699 41.6087 11.8699C41.5649 11.8699 41.529 11.7982 41.529 11.7105C41.529 11.6228 41.4931 11.5511 41.4493 11.5511C41.4054 11.5511 41.3696 11.4794 41.3696 11.3917C41.3696 11.304 41.3337 11.2323 41.2899 11.2323C41.246 11.2323 41.2101 11.1852 41.2101 11.1276C41.2101 11.0702 41.1384 10.9461 41.0507 10.852C40.963 10.758 40.8913 10.6257 40.8913 10.5581C40.8913 10.4906 40.8554 10.4352 40.8116 10.4352C40.7678 10.4352 40.7319 10.3814 40.7319 10.3156C40.7319 10.2498 40.696 10.196 40.6522 10.196C40.6083 10.196 40.5725 10.1422 40.5725 10.0765C40.5725 10.0107 40.5366 9.95689 40.4928 9.95689C40.4489 9.95689 40.413 9.92222 40.413 9.87997C40.413 9.71039 39.6508 8.63052 39.2774 8.27102C39.1568 8.15465 39.058 8.02113 39.058 7.9741C39.058 7.8661 36.2163 5.01486 36.1087 5.01486C36.0649 5.01486 35.8813 4.87139 35.7006 4.69602C35.5198 4.52066 35.3389 4.37718 35.2984 4.37718C35.2578 4.37718 35.135 4.28751 35.0254 4.17791C34.9158 4.06831 34.7935 3.97863 34.7536 3.97863C34.7138 3.97863 34.5914 3.88896 34.4818 3.77936C34.3722 3.66976 34.2437 3.58008 34.1959 3.58008C34.1482 3.58008 34.0322 3.50834 33.9382 3.42066C33.8441 3.33298 33.72 3.26124 33.6626 3.26124C33.605 3.26124 33.558 3.22537 33.558 3.18153C33.558 3.13769 33.5042 3.10182 33.4384 3.10182C33.3726 3.10182 33.3188 3.06595 33.3188 3.02211C33.3188 2.97827 33.268 2.9424 33.2059 2.9424C33.1439 2.9424 33.0811 2.91351 33.0664 2.87843C33.0291 2.78856 31.5198 2.06559 31.3695 2.06559C31.3018 2.06559 31.2464 2.02972 31.2464 1.98588C31.2464 1.94204 31.1746 1.90617 31.087 1.90617C30.9993 1.90617 30.9275 1.8703 30.9275 1.82646C30.9275 1.78262 30.8733 1.74675 30.807 1.74675C30.7406 1.74675 30.624 1.71506 30.5479 1.6764C30.4718 1.63755 30.3108 1.56581 30.1902 1.51698C30.0697 1.46796 29.8724 1.38785 29.7518 1.33883C29.6312 1.29001 29.4702 1.21827 29.3941 1.17941C29.318 1.14075 29.1857 1.10907 29.1 1.10907C29.0143 1.10907 28.922 1.0732 28.8949 1.02936C28.8678 0.985517 28.7423 0.949647 28.6159 0.949647C28.4896 0.949647 28.3641 0.913777 28.337 0.869937C28.3099 0.826096 28.1821 0.790227 28.0532 0.790227C27.9243 0.790227 27.8188 0.754357 27.8188 0.710516C27.8188 0.666676 27.6754 0.630806 27.5 0.630806C27.3246 0.630806 27.1812 0.594937 27.1812 0.551096C27.1812 0.507256 27.0197 0.471386 26.8225 0.471386C26.6252 0.471386 26.4638 0.435516 26.4638 0.391676C26.4638 0.347835 26.2916 0.311966 26.0812 0.311966C25.8707 0.311966 25.6645 0.279085 25.6228 0.238632C25.4417 0.0634693 19.6737 -0.0967482 19.5702 0.0706431ZM24.192 2.54385C24.2191 2.58769 24.4523 2.62356 24.7101 2.62356C24.968 2.62356 25.2012 2.65943 25.2283 2.70327C25.2554 2.74711 25.4347 2.78298 25.6268 2.78298C25.8189 2.78298 25.9983 2.81885 26.0254 2.86269C26.0525 2.90653 26.234 2.9424 26.4287 2.9424C26.6234 2.9424 26.7826 2.97827 26.7826 3.02211C26.7826 3.06595 26.888 3.10182 27.017 3.10182C27.1459 3.10182 27.2736 3.13769 27.3007 3.18153C27.3278 3.22537 27.4556 3.26124 27.5845 3.26124C27.7134 3.26124 27.8188 3.29711 27.8188 3.34095C27.8188 3.38479 27.9264 3.42066 28.058 3.42066C28.1895 3.42066 28.2971 3.45653 28.2971 3.50037C28.2971 3.54421 28.4047 3.58008 28.5362 3.58008C28.6678 3.58008 28.7754 3.61595 28.7754 3.65979C28.7754 3.70363 28.8471 3.7395 28.9348 3.7395C29.0225 3.7395 29.0942 3.77537 29.0942 3.81921C29.0942 3.86305 29.2018 3.89892 29.3333 3.89892C29.4649 3.89892 29.5725 3.93479 29.5725 3.97863C29.5725 4.02247 29.6442 4.05834 29.7319 4.05834C29.8196 4.05834 29.8913 4.09421 29.8913 4.13805C29.8913 4.18189 29.963 4.21776 30.0507 4.21776C30.1384 4.21776 30.2101 4.25363 30.2101 4.29747C30.2101 4.34131 30.2789 4.37718 30.363 4.37718C30.4469 4.37718 30.5276 4.40428 30.5423 4.43736C30.5569 4.47044 30.8199 4.62209 31.1268 4.77454C31.4337 4.92678 31.7027 5.07006 31.7246 5.09298C31.8155 5.18744 32.2754 5.41341 32.3769 5.41341C32.4372 5.41341 32.5383 5.48515 32.6015 5.57284C32.6646 5.66052 32.7722 5.73226 32.8406 5.73226C32.9089 5.73226 33.0165 5.804 33.0797 5.89168C33.1429 5.97936 33.2351 6.0511 33.2848 6.0511C33.3344 6.0511 33.4874 6.15871 33.6251 6.29023C33.7628 6.42175 33.8963 6.52936 33.9222 6.52936C33.948 6.52936 34.1008 6.66506 34.2616 6.83086C34.4226 6.99666 34.6799 7.22044 34.8333 7.32825C34.9868 7.43606 35.3668 7.77563 35.6779 8.08291C35.9889 8.39019 36.3207 8.69448 36.4152 8.75885C36.5096 8.82342 36.587 8.91508 36.587 8.96251C36.587 9.01014 36.7123 9.19048 36.8655 9.36345C37.1983 9.73929 37.2149 9.76001 37.4638 10.1163C37.571 10.2698 37.7224 10.4648 37.8003 10.5497C37.8783 10.6348 37.942 10.7434 37.942 10.7913C37.942 10.8391 38.0138 10.93 38.1014 10.9931C38.1891 11.0563 38.2609 11.1472 38.2609 11.195C38.2609 11.2428 38.3236 11.3514 38.4004 11.4365C38.4771 11.5214 38.5935 11.6986 38.6588 11.8301C38.7244 11.9616 38.841 12.1272 38.9179 12.1981C38.995 12.2691 39.058 12.3857 39.058 12.4572C39.058 12.5287 39.0938 12.5873 39.1377 12.5873C39.1815 12.5873 39.2174 12.6591 39.2174 12.7467C39.2174 12.8344 39.2533 12.9062 39.2971 12.9062C39.3409 12.9062 39.3768 12.9779 39.3768 13.0656C39.3768 13.1533 39.4127 13.225 39.4565 13.225C39.5004 13.225 39.5362 13.2967 39.5362 13.3844C39.5362 13.4721 39.5721 13.5439 39.6159 13.5439C39.6598 13.5439 39.6957 13.6156 39.6957 13.7033C39.6957 13.791 39.7315 13.8627 39.7754 13.8627C39.8192 13.8627 39.8551 13.9344 39.8551 14.0221C39.8551 14.1098 39.8909 14.1815 39.9348 14.1815C39.9786 14.1815 40.0145 14.2537 40.0145 14.3419C40.0145 14.4302 40.0462 14.5647 40.0848 14.6409C40.2261 14.9187 40.324 15.1879 40.4535 15.6562C40.5262 15.9192 40.6187 16.1968 40.6587 16.2729C40.699 16.3491 40.7319 16.5015 40.7319 16.6117C40.7319 16.7219 40.7678 16.812 40.8116 16.812C40.8554 16.812 40.8913 16.9554 40.8913 17.1308C40.8913 17.3062 40.9272 17.4496 40.971 17.4496C41.0149 17.4496 41.0507 17.6089 41.0507 17.8036C41.0507 17.9983 41.0866 18.1798 41.1304 18.2069C41.1743 18.234 41.2101 18.4313 41.2101 18.6453C41.2101 18.8593 41.246 19.0566 41.2899 19.0837C41.3337 19.1108 41.3696 19.4538 41.3696 19.8457C41.3696 20.2676 41.4021 20.5583 41.4493 20.5583C41.4985 20.5583 41.529 20.9687 41.529 21.6296C41.529 22.258 41.4961 22.7215 41.4493 22.7504C41.4054 22.7775 41.3696 23.0465 41.3696 23.3482C41.3696 23.6499 41.3337 23.9189 41.2899 23.946C41.246 23.9731 41.2101 24.1525 41.2101 24.3446C41.2101 24.5367 41.1743 24.716 41.1304 24.7431C41.0866 24.7702 41.0507 24.8685 41.0507 24.9613C41.0507 25.1168 40.9577 25.4633 40.8096 25.8591C40.6601 26.2586 40.3333 27.3562 40.3333 27.4589C40.3333 27.5214 40.2975 27.5728 40.2536 27.5728C40.2098 27.5728 40.1739 27.6804 40.1739 27.812C40.1739 27.9435 40.138 28.0511 40.0942 28.0511C40.0504 28.0511 40.0145 28.1228 40.0145 28.2105C40.0145 28.2982 39.9786 28.3699 39.9348 28.3699C39.8909 28.3699 39.8551 28.4417 39.8551 28.5294C39.8551 28.617 39.8192 28.6888 39.7754 28.6888C39.7315 28.6888 39.6957 28.7583 39.6957 28.8434C39.6957 28.9285 39.6598 29.0204 39.6159 29.0475C39.5721 29.0746 39.5362 29.1664 39.5362 29.2515C39.5362 29.3366 39.5004 29.4062 39.4565 29.4062C39.4127 29.4062 39.3768 29.4779 39.3768 29.5656C39.3768 29.6533 39.3409 29.725 39.2971 29.725C39.2533 29.725 39.2174 29.7967 39.2174 29.8844C39.2174 29.9721 39.1815 30.0439 39.1377 30.0439C39.0938 30.0439 39.058 30.1156 39.058 30.2033C39.058 30.291 39.0221 30.3627 38.9783 30.3627C38.9344 30.3627 38.8985 30.4344 38.8985 30.5221C38.8985 30.6098 38.8627 30.6815 38.8188 30.6815C38.775 30.6815 38.7391 30.7533 38.7391 30.841C38.7391 30.9286 38.7076 31.0004 38.6692 31.0004C38.6305 31.0004 38.5544 31.108 38.5 31.2395C38.4456 31.371 38.3695 31.4786 38.3308 31.4786C38.2924 31.4786 38.2609 31.5504 38.2609 31.6381C38.2609 31.7257 38.225 31.7975 38.1812 31.7975C38.1373 31.7975 38.1014 31.8692 38.1014 31.9569C38.1014 32.0446 38.0743 32.1163 38.0413 32.1163C38.008 32.1163 37.9303 32.2329 37.8683 32.3754C37.8063 32.5179 37.7348 32.6524 37.7093 32.6743C37.6407 32.7335 37.4193 33.1266 37.1262 33.7105C36.9831 33.9955 36.839 34.2406 36.8062 34.2551C36.7733 34.2699 36.7464 34.3506 36.7464 34.4345C36.7464 34.5186 36.7105 34.5873 36.6667 34.5873C36.6228 34.5873 36.587 34.6591 36.587 34.7468C36.587 34.8344 36.5511 34.9062 36.5072 34.9062C36.4634 34.9062 36.4275 34.9532 36.4275 35.0108C36.4275 35.0682 36.3628 35.1848 36.2837 35.2699C36.2043 35.3547 36.0882 35.5409 36.025 35.6833C35.962 35.8258 35.8833 35.9424 35.85 35.9424C35.817 35.9424 35.7899 36.0141 35.7899 36.1018C35.7899 36.1895 35.754 36.2612 35.7101 36.2612C35.6663 36.2612 35.6304 36.333 35.6304 36.4207C35.6304 36.5083 35.5946 36.5801 35.5507 36.5801C35.5069 36.5801 35.471 36.6518 35.471 36.7395C35.471 36.8272 35.4352 36.8989 35.3913 36.8989C35.3475 36.8989 35.3116 36.9707 35.3116 37.0583C35.3116 37.146 35.2757 37.2178 35.2319 37.2178C35.188 37.2178 35.1522 37.2895 35.1522 37.3772C35.1522 37.4649 35.1163 37.5366 35.0725 37.5366C35.0286 37.5366 34.9928 37.6083 34.9928 37.696C34.9928 37.7837 34.9635 37.8554 34.9274 37.8554C34.8915 37.8554 34.8134 38.0348 34.7536 38.254C34.6938 38.4732 34.6157 38.6525 34.5799 38.6525C34.5438 38.6525 34.5145 38.74 34.5145 38.847C34.5145 38.9541 34.4786 39.0639 34.4348 39.091C34.3909 39.1181 34.3551 39.2279 34.3551 39.3349C34.3551 39.4419 34.3192 39.5294 34.2754 39.5294C34.2315 39.5294 34.1957 39.637 34.1957 39.7685C34.1957 39.9 34.1598 40.0076 34.1159 40.0076C34.0721 40.0076 34.0362 40.0977 34.0362 40.2079C34.0362 40.3181 34.0047 40.4705 33.9663 40.5467C33.8364 40.8039 33.7114 41.2692 33.6634 41.6758C33.6371 41.8981 33.5847 42.0801 33.5468 42.0801C33.5091 42.0801 33.4783 42.2056 33.4783 42.3591C33.4783 42.5125 33.4424 42.6381 33.3986 42.6381C33.3547 42.6381 33.3188 42.7815 33.3188 42.9569C33.3188 43.1323 33.283 43.2757 33.2391 43.2757C33.1953 43.2757 33.1594 43.4192 33.1594 43.5946C33.1594 43.7699 33.1236 43.9134 33.0797 43.9134C33.0359 43.9134 33 44.0569 33 44.2323C33 44.4076 32.9641 44.5511 32.9203 44.5511C32.8765 44.5511 32.8406 44.7304 32.8406 44.9496C32.8406 45.1689 32.8047 45.3482 32.7609 45.3482C32.717 45.3482 32.6812 45.5074 32.6812 45.7021C32.6812 45.8968 32.6453 46.0783 32.6015 46.1054C32.5576 46.1325 32.5217 46.35 32.5217 46.5885C32.5217 46.827 32.4859 47.0221 32.442 47.0221C32.3978 47.0221 32.3623 47.2331 32.3623 47.4956C32.3623 47.756 32.3265 47.9914 32.2826 48.0185C32.2388 48.0456 32.2029 48.3146 32.2029 48.6163C32.2029 48.928 32.1652 49.1882 32.1156 49.2189C32.0662 49.2494 32.0443 49.3985 32.0652 49.5623C32.1983 50.6029 30.4849 52.2894 28.8551 52.7226C28.172 52.9041 15.8235 52.8969 15.1166 52.7146C13.0749 52.1879 11.5586 50.2149 11.558 48.0845C11.558 47.9013 11.5197 47.5606 11.4731 47.3272C11.4264 47.0937 11.3517 46.7053 11.3071 46.4641C11.2626 46.223 11.1961 45.8823 11.1594 45.7069C11.1228 45.5315 11.0484 45.1728 10.9942 44.9098C10.5702 42.8491 9.51122 39.2486 8.98971 38.0946C8.48076 36.9679 8.04734 36.1429 6.89573 34.1091C6.53563 33.4734 6.11337 32.7201 5.95734 32.4352C5.80111 32.1502 5.54504 31.6839 5.38821 31.3989C3.97415 28.8295 3.06207 26.5171 2.63701 24.4243C2.42698 23.39 2.3913 22.9811 2.3913 21.6077C2.3913 20.2289 2.41681 19.9121 2.63621 18.5656C2.98355 16.4349 3.86275 13.9687 4.87707 12.2802C5.04426 12.0019 5.18116 11.7581 5.18116 11.7386C5.18116 11.3716 7.43915 8.67575 8.81136 7.40457C10.0042 6.29939 12.6905 4.45689 13.1085 4.45689C13.1713 4.45689 13.2438 4.42222 13.2701 4.37977C13.2963 4.33733 13.424 4.32398 13.5539 4.34988C13.7036 4.37977 13.7899 4.36423 13.7899 4.30744C13.7899 4.25822 13.8616 4.21776 13.9493 4.21776C14.037 4.21776 14.1087 4.18189 14.1087 4.13805C14.1087 4.09421 14.1782 4.05834 14.2633 4.05834C14.3484 4.05834 14.4403 4.02247 14.4674 3.97863C14.4945 3.93479 14.6043 3.89892 14.7113 3.89892C14.8183 3.89892 14.9058 3.86305 14.9058 3.81921C14.9058 3.77537 14.9753 3.7395 15.0604 3.7395C15.1455 3.7395 15.2374 3.70363 15.2645 3.65979C15.2916 3.61595 15.4014 3.58008 15.5084 3.58008C15.6154 3.58008 15.7029 3.54421 15.7029 3.50037C15.7029 3.45653 15.8105 3.42066 15.942 3.42066C16.0736 3.42066 16.1812 3.38479 16.1812 3.34095C16.1812 3.29711 16.3067 3.26124 16.4601 3.26124C16.6136 3.26124 16.7391 3.22537 16.7391 3.18153C16.7391 3.13769 16.8467 3.10182 16.9783 3.10182C17.1098 3.10182 17.2174 3.06595 17.2174 3.02211C17.2174 2.97827 17.3766 2.9424 17.5713 2.9424C17.766 2.9424 17.9475 2.90653 17.9746 2.86269C18.0017 2.81885 18.1811 2.78298 18.3732 2.78298C18.5653 2.78298 18.7446 2.74711 18.7717 2.70327C18.7988 2.65943 19.0521 2.62356 19.3345 2.62356C19.6236 2.62356 19.8478 2.58869 19.8478 2.54385C19.8478 2.49264 20.6168 2.46414 21.9952 2.46414C23.3409 2.46414 24.1611 2.49383 24.192 2.54385Z" fill="#112B64"/>
</svg>
