<svg width="47" height="70" viewBox="0 0 47 70" fill="none" xmlns="http://www.w3.org/2000/svg">
<path fill-rule="evenodd" clip-rule="evenodd" d="M21.4323 0.128725C16.6538 0.857894 12.9299 3.7968 11.869 7.67595C11.4544 9.19195 11.4544 35.8928 11.869 37.4088C14.5659 47.2699 31.1659 47.534 34.3927 37.7669C35.0213 35.8635 35.0213 9.22122 34.3927 7.31785C32.8321 2.59443 26.8866 -0.703668 21.4323 0.128725ZM0.0878166 34.1919C0.16223 37.6542 0.233871 38.4767 0.559488 39.5978C2.51897 46.3477 8.27354 51.8022 15.6999 53.9486L17.37 54.4313V59.7225V65.0136H11.5926H5.81512V67.5068V70H23.2376H40.6603V67.5068V65.0136H34.8829H29.1054V59.7188V54.424L30.7756 53.929C36.7887 52.1467 41.749 48.1938 44.3761 43.0901C45.9564 40.02 46.4336 37.6406 46.4364 32.8163L46.4378 30.1081H43.4816H40.5253L40.4329 33.59C40.3271 37.5798 40.0733 38.8046 38.888 41.0498C33.3315 51.5751 16.5928 52.8618 8.98763 43.348C6.63991 40.4113 6.00231 38.2927 5.99838 33.4181L5.99561 30.1081H2.9978H0L0.0878166 34.1919Z" fill="#115F63"/>
</svg>
