<svg width="41" height="41" viewBox="0 0 41 41" fill="none" xmlns="http://www.w3.org/2000/svg">
<path fill-rule="evenodd" clip-rule="evenodd" d="M17.5188 0.157012C1.20507 2.17711 -5.81933 22.1732 5.63947 33.9737C16.2512 44.9019 34.7811 40.4267 39.1935 25.87C43.3908 12.0225 31.8889 -1.62239 17.5188 0.157012ZM17.2088 12.967C17.5297 13.1598 19.8834 14.6275 22.4392 16.2288C27.4817 19.3879 27.4407 19.3566 27.4407 20.0385C27.4407 20.7204 27.4817 20.6891 22.4392 23.8482C16.3069 27.6901 16.6997 27.4604 16.2633 27.4604C15.8294 27.4604 15.4535 27.2355 15.2183 26.8351C14.9661 26.4057 14.9661 13.6713 15.2183 13.2419C15.6452 12.5152 16.3048 12.4241 17.2088 12.967Z" fill="#115F63"/>
</svg>
