<svg width="40" height="40" viewBox="0 0 40 40" fill="none" xmlns="http://www.w3.org/2000/svg">
<path d="M3.21127 0.138737C2.45312 0.341949 1.85911 0.685856 1.27291 1.26424C0.678895 1.85825 0.342808 2.45227 0.139592 3.24168C-0.00891142 3.84351 -0.00891142 4.0858 0.00672054 12.0659L0.0301685 20.2649L0.233384 20.7886C0.514759 21.5076 0.858663 22.0235 1.40578 22.5315C1.92164 23.0005 2.76576 23.446 3.41449 23.5789C3.69586 23.6336 5.84526 23.6648 10.0737 23.6648H16.3265V26.2285V28.7921L14.3178 30.2381C13.0985 31.1056 12.2309 31.7778 12.1293 31.942C12.0199 32.1061 11.9495 32.3249 11.9495 32.5125C11.9495 33.1456 12.059 33.255 14.2865 34.8417L16.3812 36.3345L16.475 36.7332C16.8033 38.1635 17.9288 39.3281 19.492 39.8517C19.7421 39.9377 21.4303 39.9612 27.9645 39.9846C35.9133 40.0081 36.14 40.0002 36.7418 39.8517C37.5391 39.6485 38.1331 39.3124 38.7271 38.7184C39.3211 38.1244 39.6572 37.5304 39.8604 36.741C40.0089 36.1391 40.0089 35.8968 39.9933 27.9167L39.9698 19.7178L39.7666 19.1941C39.4852 18.475 39.1413 17.9592 38.5942 17.4511C38.0784 16.9822 37.2342 16.5367 36.5855 16.4038C36.3041 16.3491 34.1547 16.3178 29.9263 16.3178H23.6735V13.7542V11.1905L25.6822 9.74458C26.9015 8.877 27.7691 8.20483 27.8707 8.04069C27.9801 7.87656 28.0505 7.65771 28.0505 7.47012C28.0505 6.83703 27.941 6.72761 25.7135 5.14096L23.6188 3.64811L23.525 3.2495C23.1967 1.81917 22.0712 0.654591 20.508 0.13092C20.2579 0.0449448 18.5775 0.0214958 11.9886 0.00586319C4.08666 -0.00976944 3.75839 -0.00195312 3.21127 0.138737ZM20.0234 2.45227C20.4142 2.58514 20.9379 3.03846 21.1255 3.41363C21.1958 3.53869 21.2818 3.86696 21.3209 4.14052C21.36 4.41408 21.4381 4.73453 21.4929 4.85959C21.5632 5.00809 22.1259 5.4536 23.1811 6.21175C24.0565 6.83703 24.7834 7.37633 24.8068 7.4076C24.8303 7.43886 24.119 7.9938 23.228 8.62689C22.0556 9.47102 21.5788 9.86963 21.4694 10.065C21.3365 10.3151 21.3287 10.5809 21.3287 13.3243V16.3178H20.7425C19.4841 16.3178 18.4837 16.7242 17.6083 17.5996C16.7329 18.475 16.3265 19.4755 16.3265 20.7417V21.32L10.019 21.3044L3.70368 21.281L3.34414 21.0699C3.14874 20.9527 2.89082 20.7338 2.77358 20.5853C2.32025 19.9835 2.33588 20.3509 2.33588 11.8236C2.33588 6.04762 2.35933 3.92167 2.42967 3.72627C2.64071 3.10881 3.07059 2.67111 3.70368 2.42882C3.87563 2.36629 5.97813 2.33503 11.801 2.33503C18.7729 2.32721 19.703 2.34284 20.0234 2.45227ZM36.6559 18.9127C36.8513 19.03 37.1092 19.2488 37.2264 19.4051C37.6876 20.007 37.6719 19.6396 37.6485 28.2763C37.625 35.9437 37.6172 36.2173 37.4765 36.5143C37.2811 36.9051 36.9138 37.2725 36.523 37.4679C36.226 37.6085 35.9524 37.6164 28.2928 37.6398C19.4216 37.6633 19.9062 37.6867 19.3044 37.1083C18.8979 36.7097 18.7651 36.444 18.6791 35.8421C18.64 35.5686 18.5619 35.2481 18.5071 35.1231C18.4368 34.9746 17.8741 34.529 16.8189 33.7709C15.9435 33.1456 15.2166 32.6063 15.1932 32.5751C15.1697 32.5438 15.8732 32.0045 16.7407 31.3792C17.6161 30.7539 18.3977 30.1443 18.4837 30.0192C18.6244 29.8082 18.6322 29.5659 18.6713 24.9154L18.7104 20.0304L18.9292 19.6631C19.1715 19.2488 19.5467 18.9284 19.9766 18.772C20.2188 18.6861 21.7273 18.6704 28.2849 18.6861L36.2963 18.7017L36.6559 18.9127Z" fill="#115F63"/>
<path d="M11.5661 7.29662C11.2378 7.43731 11.1675 7.66397 11.1675 8.61752V9.43039L9.55739 9.45383L7.9473 9.47728L7.75971 9.69613C7.5565 9.93843 7.52523 10.1416 7.66592 10.3996C7.82224 10.6966 7.97856 10.7591 8.56476 10.7669H9.12751L9.17441 11.0561C9.33854 12.0409 9.79968 13.1117 10.4171 13.9558L10.7845 14.4482L10.253 14.6905C9.72934 14.925 8.80705 15.1361 8.26775 15.1439C7.76753 15.1439 7.43144 15.6675 7.6581 16.074C7.8535 16.4257 8.0958 16.4882 8.90866 16.3944C9.77624 16.2928 10.636 16.0193 11.3316 15.6206L11.8553 15.3236L12.207 15.5425C13.0355 16.0583 14.1141 16.3788 15.1224 16.4101C15.6851 16.4335 15.7242 16.4257 15.904 16.2147C16.1463 15.9333 16.1463 15.6128 15.8961 15.3627C15.7398 15.1986 15.5913 15.1595 15.1146 15.1126C14.4815 15.0579 13.6608 14.8312 13.184 14.5889L12.8948 14.4404L13.2778 13.9324C13.7937 13.2524 14.1923 12.377 14.3955 11.5016L14.5596 10.7669H15.138C15.6382 10.7669 15.732 10.7435 15.8961 10.5715C16.1463 10.3292 16.1463 9.98532 15.904 9.69613L15.7164 9.47728L14.1063 9.45383L12.4962 9.43039V8.54718C12.4962 7.78121 12.4727 7.63271 12.3399 7.46857C12.1523 7.21846 11.8787 7.16375 11.5661 7.29662ZM13.1449 11.017C13.0042 11.7986 12.6291 12.6193 12.121 13.2524C11.8006 13.6432 11.7849 13.6354 11.3004 12.885C10.9643 12.377 10.6829 11.7361 10.5813 11.275C10.5578 11.1421 10.5188 10.978 10.4953 10.8998C10.4562 10.7747 10.5578 10.7669 11.824 10.7669H13.1996L13.1449 11.017Z" fill="#115F63"/>
<path d="M27.7539 23.5792C27.4412 23.6573 27.238 23.8371 27.1208 24.1185C26.8629 24.7594 24.69 32.0204 24.7057 32.1767C24.7525 32.5363 25.456 32.8646 25.9249 32.7395C26.1516 32.677 26.2376 32.4972 26.5659 31.3404L26.73 30.7777H28.1681H29.6063L29.7235 31.2076C29.7939 31.442 29.9033 31.8407 29.9736 32.083C30.1378 32.6692 30.2315 32.7551 30.6614 32.7473C31.0913 32.7473 31.4977 32.5285 31.5915 32.2549C31.6462 32.1064 31.3961 31.1919 30.4426 28.0812C29.7704 25.8927 29.1686 24.0169 29.0982 23.9153C28.9028 23.6182 28.2541 23.4541 27.7539 23.5792ZM28.7074 27.5809C28.9888 28.597 29.2233 29.449 29.2233 29.4802C29.2233 29.5037 28.7465 29.5271 28.1681 29.5271C27.41 29.5271 27.113 29.5037 27.113 29.4333C27.113 29.3864 27.2927 28.7065 27.5116 27.9327C28.0978 25.8302 28.1447 25.6817 28.1681 25.7129C28.1759 25.7286 28.4182 26.5649 28.7074 27.5809Z" fill="#115F63"/>
</svg>
