<svg width="24" height="25" viewBox="0 0 24 25" fill="none" xmlns="http://www.w3.org/2000/svg">
<g clip-path="url(#clip0_3758_17)">
<path d="M10.7821 1.00869C9.52508 1.20077 8.40155 1.79531 7.52206 2.7237C6.55508 3.74356 6.05318 4.92348 5.98411 6.33665C5.88741 8.31235 6.8636 10.2011 8.54889 11.2942C9.37773 11.8338 10.1743 12.1082 11.1413 12.186C12.9325 12.3232 14.4613 11.7652 15.6953 10.5167C16.9017 9.29562 17.4405 7.79098 17.2931 6.06225C17.1642 4.58048 16.5057 3.30451 15.3638 2.32582C14.4613 1.55749 13.6324 1.17333 12.4859 1.00869C11.9333 0.93094 11.2887 0.926366 10.7821 1.00869ZM12.7437 2.44472C13.4667 2.62766 14.01 2.94322 14.6178 3.52404C15.4098 4.26949 15.8104 5.0927 15.9163 6.15829C16.0406 7.42054 15.6493 8.57303 14.7882 9.4877C14.254 10.0548 13.4667 10.535 12.799 10.7042C11.809 10.9512 10.6302 10.846 9.78294 10.4298C8.62717 9.86272 7.77071 8.8017 7.45759 7.54859C7.33787 7.06839 7.35169 5.9845 7.48522 5.49058C7.83978 4.16431 9.00015 2.93407 10.2894 2.5179C10.9894 2.2938 12.0346 2.26179 12.7437 2.44472Z" fill="black"/>
<path d="M6.6011 12.2865C5.89659 12.3597 5.16906 12.625 4.59348 13.0091C3.15683 13.9787 2.2267 16.1464 2.01028 19.0277C1.89056 20.6466 1.98725 21.447 2.40628 22.2839C2.63651 22.7504 3.07395 23.2626 3.5206 23.5919C3.86134 23.8388 4.43232 24.0949 4.93422 24.223L5.34864 24.3328H11.7951H18.2416L18.6561 24.2276C20.1111 23.848 21.1287 22.8739 21.4925 21.4973C21.6813 20.7884 21.6583 19.0963 21.4373 17.7608C20.9538 14.7882 19.7289 13.0045 17.7904 12.4466C17.3483 12.3185 16.5563 12.2225 16.3215 12.2682C16.0959 12.3094 15.7828 12.474 15.0736 12.9268C14.3093 13.4161 14.1896 13.4802 13.6186 13.686C12.9463 13.9284 12.4444 14.0244 11.8228 14.0244C11.1781 14.0244 10.6808 13.9329 10.027 13.7043C9.40994 13.4847 9.38231 13.471 8.41533 12.8628C7.90882 12.5426 7.53124 12.3368 7.38389 12.2957C7.12603 12.2316 7.12603 12.2316 6.6011 12.2865ZM7.79831 14.093C8.66398 14.6464 9.02775 14.8247 9.78752 15.0717C11.7675 15.7165 13.7889 15.4056 15.6953 14.1662C16.5563 13.6037 16.5379 13.6128 16.9017 13.6585C18.5732 13.8689 19.6184 15.2638 20.0605 17.8843C20.2401 18.9636 20.2953 20.4683 20.1756 21.0399C19.9822 21.9592 19.356 22.6086 18.3982 22.8784C18.1219 22.9562 17.7582 22.9608 11.7951 22.9608C5.81832 22.9608 5.47297 22.9562 5.18748 22.8784C4.50139 22.6864 3.90739 22.2199 3.63111 21.6573C3.39167 21.1726 3.33181 20.7655 3.36865 19.7823C3.40088 18.7898 3.44693 18.3279 3.60809 17.5185C3.72781 16.8873 4.00869 15.9909 4.20669 15.6022C4.80069 14.4314 5.6065 13.7912 6.65176 13.6585C6.82213 13.6357 6.97868 13.6174 6.9971 13.6128C7.01552 13.6128 7.37468 13.8277 7.79831 14.093Z" fill="black"/>
</g>
<defs>
<clipPath id="clip0_3758_17">
<rect width="23.5758" height="23.4156" fill="white" transform="translate(0.0302734 0.939941)"/>
</clipPath>
</defs>
</svg>
